<svg xmlns="http://www.w3.org/2000/svg" width="32.844" height="33.742" viewBox="0 0 32.844 33.742"><path d="M-58.156-219.23v14.722c-.009.073-.023.147-.027.22a8.864,8.864,0,0,1-.67,3.1,9.663,9.663,0,0,1-7.843,6.116c-.284.044-.572.062-.857.093H-81.6c-.052-.009-.1-.019-.157-.026-.5-.067-1.011-.1-1.506-.2a9.792,9.792,0,0,1-7.641-8.264c-.034-.28-.063-.56-.094-.84V-219.39a1.713,1.713,0,0,0,.027-.171,9.043,9.043,0,0,1,.8-3.3,9.667,9.667,0,0,1,7.44-5.742c.33-.059.666-.084,1-.124h14.305a1.467,1.467,0,0,0,.156.027,9.375,9.375,0,0,1,4.572,1.513,9.648,9.648,0,0,1,4.448,7.017C-58.206-219.856-58.186-219.542-58.156-219.23Zm-29.74,7.375c0,2.336,0,4.672,0,7.008a7.036,7.036,0,0,0,.079,1.117,6.673,6.673,0,0,0,6.65,5.64q6.583,0,13.165,0a7.446,7.446,0,0,0,1.164-.094,6.659,6.659,0,0,0,5.562-6.47c.016-4.779.007-9.557,0-14.336a6.933,6.933,0,0,0-.091-1.052,6.658,6.658,0,0,0-6.446-5.57q-6.775-.027-13.55,0a6.177,6.177,0,0,0-1.426.182,6.659,6.659,0,0,0-5.112,6.5Q-87.9-215.391-87.9-211.855Z" transform="translate(91 228.724)" fill="#d62422"/><path d="M162.76,28.178c-.133,3.622-1.544,6.372-4.594,8.1A8.862,8.862,0,1,1,149.721,20.7a8.436,8.436,0,0,1,4.819-.955,10.1,10.1,0,0,1,3.524.886,7.76,7.76,0,0,1,4.473,5.77C162.666,27.032,162.7,27.687,162.76,28.178Zm-8.606,6.136a5.51,5.51,0,0,0,4.539-2.663,6.13,6.13,0,0,0,.82-4.6,4.787,4.787,0,0,0-2.018-3.19,6.027,6.027,0,0,0-2.746-.991,6.136,6.136,0,0,0-2.65.175,5.784,5.784,0,0,0,2.056,11.27Z" transform="translate(-137.464 -11.737)" fill="#d62422"/><path d="M654.514-30.865a1.539,1.539,0,0,1-1.551-1.541,1.539,1.539,0,0,1,1.541-1.551,1.54,1.54,0,0,1,1.552,1.541A1.54,1.54,0,0,1,654.514-30.865Z" transform="translate(-629.101 40.203)" fill="#d62422"/></svg>