<svg xmlns="http://www.w3.org/2000/svg" width="15.783" height="30.471" viewBox="0 0 15.783 30.471"><path d="M376.034,185.276l2.006.249v4.783H376.5c-.519,0-1.039-.017-1.556.006-1.73.078-2.433.821-2.432,2.547,0,1.167,0,2.335,0,3.574h5.34l-.693,5.37h-4.644v13.941h-5.554q-.012-6.528-.024-13.055c0-.264,0-.529,0-.862h-4.677v-5.385h4.677c0-.944-.03-1.817.007-2.688a20.422,20.422,0,0,1,.262-3.556,5.925,5.925,0,0,1,5.4-4.816,1.652,1.652,0,0,0,.311-.108Z" transform="translate(-362.257 -185.276)" fill="#d62422"/></svg>