<svg xmlns="http://www.w3.org/2000/svg" width="27.099" height="27.296" viewBox="0 0 27.099 27.296" id="phone"><path d="M-39.542,146.143a3.266,3.266,0,0,1-1.014,2.443,4.051,4.051,0,0,1-.4.391c-.584.388-.569.858-.336,1.464a12.653,12.653,0,0,0,7.906,7.73c.41.146.742.174,1.026-.23a5.124,5.124,0,0,1,.546-.56,3.113,3.113,0,0,1,3.23-.9c1.045.274,2.092.546,3.124.863a3.3,3.3,0,0,1,1.9,4.89,16.9,16.9,0,0,1-1.925,2.02,2.363,2.363,0,0,1-1.685.671,7.607,7.607,0,0,1-1.488-.07c-1.131-.171-2.253-.4-3.384-.579a15.739,15.739,0,0,1-4.342-1.508,19.883,19.883,0,0,1-4.574-3.045,20.812,20.812,0,0,1-4.386-5.372,19.38,19.38,0,0,1-2.415-6.727c-.183-1.223-.288-2.462-.355-3.7a2.165,2.165,0,0,1,.687-1.675c.5-.489,1.011-.961,1.477-1.476a3.157,3.157,0,0,1,4.2-.214,3.5,3.5,0,0,1,1.269,1.878c.281,1.055.578,2.106.858,3.161A4.044,4.044,0,0,1-39.542,146.143Z" transform="translate(49.117 -138.635)" fill="none" stroke="#fff" stroke-width="2"/></svg>