<svg xmlns="http://www.w3.org/2000/svg" width="273.056" height="80" viewBox="0 0 273.056 80" id="logo"><g transform="translate(-68.912 -74.506)"><path d="M97.244,130.481l15.2.092,41.39-54.85H138.359L97.244,130.481Z" transform="translate(8.02 0.344)" fill="#726c6b" fill-rule="evenodd"/><path d="M83.042,130.553l15.109.092L139.54,75.794H124.065L83.042,130.553Z" transform="translate(4 0.364)" fill="#878685" fill-rule="evenodd"/><path d="M68.912,130.553H84.295l41.665-54.759H110.666L68.912,130.553Z" transform="translate(0 0.364)" fill="#bcb5b5" fill-rule="evenodd"/><path d="M329.989,76.251l-18.862.183L290.247,97.128l6.961-20.786H281.184L272.577,105c-1.1,4.212-4.855,6.958-8.425,9.248-5.131,3.023-11.537,4.486-16.758,1.923a9.959,9.959,0,0,1-5.586-7.786c-.549-5.035,2.381-9.614,5.77-13.094,5.219-5.4,13.185-8.608,20.6-6.775h0l10.439-9.25a13.51,13.51,0,0,0-4.3-2.472c-7.692-3.571-17.673-2.747-25,.915A33.2,33.2,0,0,0,235.49,88.978a23.509,23.509,0,0,0-10.714-11.536c-5.951-2.748-12.911-2.564-18.955-.642a29.32,29.32,0,0,0-13.094,6.868,40.281,40.281,0,0,0-7.234,8.423c1.464-6.136-2.838-12-6.957-14.193a18.937,18.937,0,0,0-7.695-1.556h0l-17.307-.091-42.3,55.033h52.744a21.616,21.616,0,0,0,9.89-2.383c2.837-1.647,5.4-5.035,7.05-7.965.182-.733,1.281,2.289,1.83,2.931,3.481,4.488,9.157,6.959,14.836,7.6,10.712,1.189,24.723-3.389,30.125-11.814,2.107,4.4,3.572,5.128,5.77,7.052,5.861,4.854,14.559,6.317,21.517,4.945,5.952-1.1,11.813-5.4,11.813-5.4h0l-1.465,4.669h15.932l4.4-16.206,10.712,16.206h18.5L298.49,107.477l31.5-31.226Zm-109.058,15.2,1.283,1.283c2.379,2.653,1.831,6.775.915,10.164a19.807,19.807,0,0,1-11.813,12.818c-4.853,2.016-11.261,2.2-15.017-1.739a10.643,10.643,0,0,1-2.472-8.7A20.515,20.515,0,0,1,211.134,88.7a12.574,12.574,0,0,1,9.8,2.747Zm-52.834-4.3c2.837,0,4.394,1.464,4.3,3.48a6.151,6.151,0,0,1-6.136,5.5h0l-13.186-.092,7.052-8.883Zm-4.763,20.238c2.472,0,5.679,1.1,6.228,3.295a5.908,5.908,0,0,1-.826,4.853,7.984,7.984,0,0,1-6.134,3.024H137.237l8.608-11.172Z" transform="translate(11.979 0)" fill="#d62422" fill-rule="evenodd"/><path d="M199.813,89.986l1.055,1.053c1.954,2.181,1.5,5.566.751,8.351a16.266,16.266,0,0,1-9.7,10.528c-3.986,1.655-9.251,1.808-12.334-1.429a8.728,8.728,0,0,1-2.031-7.145,16.851,16.851,0,0,1,14.216-13.615,10.323,10.323,0,0,1,8.047,2.257Z" transform="translate(30.729 3.722)" fill="#bcb5b5" fill-rule="evenodd"/><g transform="translate(123.325 137.921)"><path d="M111.321,133.6v-.512a.22.22,0,0,1,.237-.237h.787a.22.22,0,0,1,.237.237v.439c0,1.372,1.225,2.36,3.237,2.36,1.921,0,2.871-.9,2.871-2.176,0-1.3-.988-1.9-3.365-2.889-2.194-.878-3.822-1.555-3.822-3.658,0-2.066,1.536-3.236,4.024-3.236,2.706,0,4.352,1.388,4.352,3.475v.346a.222.222,0,0,1-.237.239h-.806a.222.222,0,0,1-.237-.239v-.273c0-1.372-1.1-2.415-3.145-2.415-1.719,0-2.67.731-2.67,2.067,0,1.37,1.024,1.81,3.237,2.669,2.249.915,3.968,1.774,3.968,3.859,0,1.994-1.537,3.364-4.261,3.364C113.021,137.023,111.321,135.671,111.321,133.6Z" transform="translate(-111.321 -123.931)" fill="#726c6b"/><path d="M127.425,131.469a8.253,8.253,0,0,1-.221,2.267,3.305,3.305,0,0,1-3.382,2.5,2.846,2.846,0,0,1-2.322-1.1c-.055-.074-.11-.037-.11.036v4.225a.221.221,0,0,1-.237.237h-.822a.221.221,0,0,1-.239-.237V127.08a.222.222,0,0,1,.239-.239h.822a.221.221,0,0,1,.237.239v.694c0,.073.055.092.11.037a2.808,2.808,0,0,1,2.322-1.115,3.288,3.288,0,0,1,3.346,2.449A7.827,7.827,0,0,1,127.425,131.469Zm-1.3,0a5.038,5.038,0,0,0-.33-2.213,2.105,2.105,0,0,0-2.1-1.427,1.988,1.988,0,0,0-1.957,1.409,5.091,5.091,0,0,0-.312,2.231,5.219,5.219,0,0,0,.33,2.267,1.967,1.967,0,0,0,1.921,1.372,2.1,2.1,0,0,0,2.03-1.334A4.343,4.343,0,0,0,126.127,131.469Z" transform="translate(-108.839 -123.148)" fill="#726c6b"/><path d="M133.825,133.754a.208.208,0,0,1,.311-.109l.53.293c.128.073.183.182.11.311a3.582,3.582,0,0,1-3.4,1.993,3.373,3.373,0,0,1-3.419-2.285,7.177,7.177,0,0,1-.346-2.524,8.565,8.565,0,0,1,.164-2.121A3.45,3.45,0,0,1,131.3,126.7a3.413,3.413,0,0,1,3.658,3.145,9.707,9.707,0,0,1,.11,1.828.222.222,0,0,1-.237.239h-5.852a.087.087,0,0,0-.092.091,5.789,5.789,0,0,0,.11,1.334,2.373,2.373,0,0,0,2.487,1.792A2.519,2.519,0,0,0,133.825,133.754Zm-4.792-4.206a5.193,5.193,0,0,0-.146,1.243.088.088,0,0,0,.092.092h4.7a.088.088,0,0,0,.092-.092,7.624,7.624,0,0,0-.11-1.17,2.283,2.283,0,0,0-2.36-1.792A2.176,2.176,0,0,0,129.032,129.548Z" transform="translate(-106.711 -123.148)" fill="#726c6b"/><path d="M142.457,129.874v5.98a.221.221,0,0,1-.237.237H141.4a.222.222,0,0,1-.239-.237v-5.725a2.223,2.223,0,0,0-4.425-.366v6.091a.221.221,0,0,1-.237.237h-.824a.222.222,0,0,1-.237-.237v-8.779a.222.222,0,0,1,.237-.239h.824a.221.221,0,0,1,.237.239v.677c0,.072.055.127.092.054a2.874,2.874,0,0,1,2.449-1.1A2.98,2.98,0,0,1,142.457,129.874Z" transform="translate(-104.495 -123.144)" fill="#726c6b"/><path d="M149.142,126.841h.822a.221.221,0,0,1,.237.239v8.7c0,3.091-2.139,4.1-5.01,3.933-.164-.018-.237-.091-.237-.255l.036-.733c0-.164.092-.237.239-.219,2.579.11,3.675-.713,3.675-2.761v-.64c0-.073-.054-.11-.109-.037a2.821,2.821,0,0,1-2.378,1.08,3.325,3.325,0,0,1-3.346-2.452,8.494,8.494,0,0,1-.219-2.23,7.871,7.871,0,0,1,.237-2.342,3.284,3.284,0,0,1,3.255-2.431,3.024,3.024,0,0,1,2.451,1.042c.055.073.109.036.109-.036v-.622A.222.222,0,0,1,149.142,126.841Zm-.239,4.609a6.938,6.938,0,0,0-.109-1.846,2.121,2.121,0,0,0-2.176-1.774,2.332,2.332,0,0,0-2.286,1.774,6.151,6.151,0,0,0-.182,1.828,6.4,6.4,0,0,0,.182,1.846,2.287,2.287,0,0,0,2.286,1.774,2.12,2.12,0,0,0,2.2-1.755A8.511,8.511,0,0,0,148.9,131.45Z" transform="translate(-102.396 -123.148)" fill="#726c6b"/><path d="M150.751,136.609V124.283a.222.222,0,0,1,.237-.239h.824a.221.221,0,0,1,.237.239v12.326a.221.221,0,0,1-.237.237h-.824A.222.222,0,0,1,150.751,136.609Z" transform="translate(-100.16 -123.899)" fill="#726c6b"/><path d="M160.064,133.754a.208.208,0,0,1,.311-.109l.531.293a.212.212,0,0,1,.109.311,3.578,3.578,0,0,1-3.4,1.993,3.372,3.372,0,0,1-3.419-2.285,7.175,7.175,0,0,1-.348-2.524,8.493,8.493,0,0,1,.166-2.121,3.449,3.449,0,0,1,3.528-2.615,3.414,3.414,0,0,1,3.658,3.145,9.729,9.729,0,0,1,.109,1.828.221.221,0,0,1-.237.239h-5.852a.086.086,0,0,0-.091.091,5.806,5.806,0,0,0,.109,1.334,2.374,2.374,0,0,0,2.488,1.792A2.517,2.517,0,0,0,160.064,133.754Zm-4.791-4.206a5.128,5.128,0,0,0-.146,1.243.087.087,0,0,0,.091.092h4.7a.087.087,0,0,0,.091-.092,7.817,7.817,0,0,0-.109-1.17,2.284,2.284,0,0,0-2.36-1.792A2.175,2.175,0,0,0,155.273,129.548Z" transform="translate(-99.284 -123.148)" fill="#726c6b"/><path d="M166.412,126.957a.223.223,0,0,1,.128.293l-.183.8c-.037.148-.128.2-.293.148a2.473,2.473,0,0,0-.9-.092,2.263,2.263,0,0,0-2.194,2.4v5.341a.221.221,0,0,1-.237.237h-.824a.221.221,0,0,1-.237-.237v-8.779a.221.221,0,0,1,.237-.239h.824a.221.221,0,0,1,.237.239v1.024c0,.091.055.11.091.036a2.63,2.63,0,0,1,2.342-1.388A2.054,2.054,0,0,1,166.412,126.957Z" transform="translate(-97.068 -123.136)" fill="#726c6b"/><path d="M172.8,133.754a.208.208,0,0,1,.311-.109l.531.293a.212.212,0,0,1,.109.311,3.578,3.578,0,0,1-3.4,1.993,3.371,3.371,0,0,1-3.419-2.285,7.174,7.174,0,0,1-.348-2.524,8.565,8.565,0,0,1,.164-2.121,3.452,3.452,0,0,1,3.53-2.615,3.415,3.415,0,0,1,3.658,3.145,9.728,9.728,0,0,1,.109,1.828.221.221,0,0,1-.237.239h-5.852a.086.086,0,0,0-.091.091,5.805,5.805,0,0,0,.109,1.334,2.374,2.374,0,0,0,2.488,1.792A2.517,2.517,0,0,0,172.8,133.754Zm-4.792-4.206a5.2,5.2,0,0,0-.145,1.243.087.087,0,0,0,.091.092h4.7a.087.087,0,0,0,.091-.092,7.821,7.821,0,0,0-.109-1.17,2.284,2.284,0,0,0-2.36-1.792A2.178,2.178,0,0,0,168.006,129.548Z" transform="translate(-95.679 -123.148)" fill="#726c6b"/><path d="M174.254,124.977a.988.988,0,1,1,.987.951A.918.918,0,0,1,174.254,124.977Zm.348,11.632V127.83a.221.221,0,0,1,.237-.239h.822a.221.221,0,0,1,.237.239v8.779a.221.221,0,0,1-.237.237h-.822A.22.22,0,0,1,174.6,136.609Z" transform="translate(-93.507 -123.899)" fill="#726c6b"/><path d="M180.657,129.811a1.117,1.117,0,0,1,1.133-1.079,1.13,1.13,0,0,1,1.134,1.079,1.1,1.1,0,0,1-1.134,1.078A1.082,1.082,0,0,1,180.657,129.811Z" transform="translate(-91.695 -122.572)" fill="#726c6b"/><path d="M187.716,136.609V124.283a.221.221,0,0,1,.237-.239h4.261c2.413,0,3.951,1.354,3.951,3.53v5.743c0,2.176-1.537,3.53-3.951,3.53h-4.261A.221.221,0,0,1,187.716,136.609Zm1.39-.9h3.164a2.4,2.4,0,0,0,2.6-2.561v-5.394a2.4,2.4,0,0,0-2.6-2.579h-3.164a.086.086,0,0,0-.091.091v10.352A.086.086,0,0,0,189.106,135.712Z" transform="translate(-89.697 -123.899)" fill="#726c6b"/><path d="M203.038,129.768v6.091a.222.222,0,0,1-.239.237h-.822a.221.221,0,0,1-.237-.237v-.66c0-.073-.055-.109-.11-.036a3.865,3.865,0,0,1-2.852,1.078c-1.555,0-3.018-.749-3.018-2.67,0-1.828,1.39-2.961,3.767-2.961h2.121a.088.088,0,0,0,.092-.092v-.676a1.861,1.861,0,0,0-2.14-2.012c-1.152,0-1.9.476-2.1,1.243a.221.221,0,0,1-.275.183l-.9-.11c-.146-.018-.239-.073-.219-.2.237-1.336,1.59-2.249,3.473-2.249C201.812,126.7,203.038,127.957,203.038,129.768Zm-1.3,3.365v-1.409a.087.087,0,0,0-.092-.091h-1.919c-1.591,0-2.67.676-2.67,1.866,0,1.115.9,1.627,2.012,1.627C200.422,135.126,201.739,134.412,201.739,133.133Z" transform="translate(-87.42 -123.148)" fill="#726c6b"/><path d="M203.54,133.7a8.026,8.026,0,0,1-.237-2.267,8.61,8.61,0,0,1,.237-2.231,3.522,3.522,0,0,1,3.548-2.5,3.57,3.57,0,0,1,3.585,2.358,3.649,3.649,0,0,1,.109.494.228.228,0,0,1-.219.275l-.8.091a.221.221,0,0,1-.275-.2.932.932,0,0,0-.036-.219,2.308,2.308,0,0,0-2.36-1.664,2.245,2.245,0,0,0-2.322,1.774,8.515,8.515,0,0,0-.164,1.846,8.1,8.1,0,0,0,.164,1.866,2.442,2.442,0,0,0,4.663.146.188.188,0,0,0,.019-.091l.018-.018a.215.215,0,0,1,.275-.2l.785.127a.23.23,0,0,1,.221.276c-.019.072-.037.182-.073.311a3.817,3.817,0,0,1-7.132-.166Z" transform="translate(-85.284 -123.148)" fill="#726c6b"/><path d="M217.968,130.629v5.98a.221.221,0,0,1-.237.237h-.824a.222.222,0,0,1-.237-.237v-5.725a2.223,2.223,0,0,0-4.425-.366v6.091a.221.221,0,0,1-.237.237h-.824a.221.221,0,0,1-.237-.237V124.283a.221.221,0,0,1,.237-.239h.824a.221.221,0,0,1,.237.239v4.225c0,.072.055.127.091.054a2.878,2.878,0,0,1,2.451-1.1A2.98,2.98,0,0,1,217.968,130.629Z" transform="translate(-83.121 -123.899)" fill="#726c6b"/><path d="M224.634,124.044h.824a.221.221,0,0,1,.237.239v12.326a.221.221,0,0,1-.237.237h-.824a.222.222,0,0,1-.237-.237v-.7c0-.073-.055-.092-.109-.037a2.813,2.813,0,0,1-2.324,1.115,3.289,3.289,0,0,1-3.346-2.449,7.823,7.823,0,0,1-.257-2.322,8.258,8.258,0,0,1,.221-2.268,3.307,3.307,0,0,1,3.382-2.5,2.847,2.847,0,0,1,2.324,1.1c.054.073.109.036.109-.036v-4.225A.222.222,0,0,1,224.634,124.044Zm-.273,8.176a5.222,5.222,0,0,0-.33-2.268,1.966,1.966,0,0,0-1.919-1.372,2.105,2.105,0,0,0-2.031,1.336,4.349,4.349,0,0,0-.421,2.3,5.032,5.032,0,0,0,.33,2.212,2.1,2.1,0,0,0,2.1,1.427,1.988,1.988,0,0,0,1.957-1.409A5.088,5.088,0,0,0,224.361,132.22Z" transform="translate(-81.022 -123.899)" fill="#726c6b"/><path d="M232.366,133.754a.208.208,0,0,1,.31-.109l.531.293a.212.212,0,0,1,.109.311,3.578,3.578,0,0,1-3.4,1.993,3.371,3.371,0,0,1-3.419-2.285,7.174,7.174,0,0,1-.348-2.524,8.565,8.565,0,0,1,.164-2.121,3.452,3.452,0,0,1,3.53-2.615,3.415,3.415,0,0,1,3.658,3.145,9.729,9.729,0,0,1,.109,1.828.221.221,0,0,1-.237.239H227.52a.086.086,0,0,0-.091.091,5.806,5.806,0,0,0,.109,1.334,2.374,2.374,0,0,0,2.488,1.792A2.518,2.518,0,0,0,232.366,133.754Zm-4.792-4.206a5.2,5.2,0,0,0-.145,1.243.087.087,0,0,0,.091.092h4.7a.087.087,0,0,0,.091-.092,7.818,7.818,0,0,0-.109-1.17,2.284,2.284,0,0,0-2.36-1.792A2.178,2.178,0,0,0,227.573,129.548Z" transform="translate(-78.818 -123.148)" fill="#726c6b"/><path d="M233.986,133.7a8.074,8.074,0,0,1-.237-2.267,8.669,8.669,0,0,1,.237-2.231,3.524,3.524,0,0,1,3.548-2.5,3.567,3.567,0,0,1,3.585,2.358,3.484,3.484,0,0,1,.11.494.229.229,0,0,1-.219.275l-.8.091a.221.221,0,0,1-.275-.2.873.873,0,0,0-.037-.219,2.306,2.306,0,0,0-2.36-1.664,2.244,2.244,0,0,0-2.321,1.774,8.495,8.495,0,0,0-.165,1.846,8.077,8.077,0,0,0,.165,1.866,2.442,2.442,0,0,0,4.663.146.2.2,0,0,0,.018-.091l.019-.018a.215.215,0,0,1,.273-.2l.786.127a.229.229,0,0,1,.219.276c-.018.072-.036.182-.073.311a3.817,3.817,0,0,1-7.133-.166Z" transform="translate(-76.666 -123.148)" fill="#726c6b"/><path d="M241.393,136.609V124.283a.221.221,0,0,1,.237-.239h.824a.222.222,0,0,1,.237.239v7.388c0,.073.055.128.109.054l3.822-4a.364.364,0,0,1,.293-.128h.97c.2,0,.273.148.146.293l-2.268,2.506a.115.115,0,0,0-.018.128l2.743,6.053c.073.164,0,.275-.182.275h-.861a.3.3,0,0,1-.273-.183l-2.324-5.285a.076.076,0,0,0-.127-.018l-1.994,2.084a.352.352,0,0,0-.036.128v3.037a.222.222,0,0,1-.237.237h-.824A.221.221,0,0,1,241.393,136.609Z" transform="translate(-74.503 -123.899)" fill="#726c6b"/><path d="M254.271,133.754a.208.208,0,0,1,.311-.109l.531.293a.212.212,0,0,1,.109.311,3.578,3.578,0,0,1-3.4,1.993,3.371,3.371,0,0,1-3.419-2.285,7.174,7.174,0,0,1-.348-2.524,8.565,8.565,0,0,1,.164-2.121,3.452,3.452,0,0,1,3.53-2.615,3.415,3.415,0,0,1,3.658,3.145,9.729,9.729,0,0,1,.109,1.828.221.221,0,0,1-.237.239h-5.852a.086.086,0,0,0-.091.091,5.805,5.805,0,0,0,.109,1.334,2.374,2.374,0,0,0,2.488,1.792A2.518,2.518,0,0,0,254.271,133.754Zm-4.792-4.206a5.2,5.2,0,0,0-.145,1.243.087.087,0,0,0,.091.092h4.7a.087.087,0,0,0,.091-.092,7.814,7.814,0,0,0-.109-1.17,2.284,2.284,0,0,0-2.359-1.792A2.178,2.178,0,0,0,249.478,129.548Z" transform="translate(-72.617 -123.148)" fill="#726c6b"/><path d="M260.619,126.957a.222.222,0,0,1,.127.293l-.182.8c-.037.148-.128.2-.293.148a2.476,2.476,0,0,0-.9-.092,2.263,2.263,0,0,0-2.194,2.4v5.341a.222.222,0,0,1-.237.237h-.824a.221.221,0,0,1-.237-.237v-8.779a.221.221,0,0,1,.237-.239h.824a.222.222,0,0,1,.237.239v1.024c0,.091.055.11.091.036a2.63,2.63,0,0,1,2.342-1.388A2.054,2.054,0,0,1,260.619,126.957Z" transform="translate(-70.401 -123.136)" fill="#726c6b"/><path d="M267.006,133.754a.208.208,0,0,1,.31-.109l.531.293a.213.213,0,0,1,.109.311,3.58,3.58,0,0,1-3.4,1.993,3.373,3.373,0,0,1-3.421-2.285,7.207,7.207,0,0,1-.346-2.524,8.567,8.567,0,0,1,.164-2.121,3.452,3.452,0,0,1,3.53-2.615,3.415,3.415,0,0,1,3.658,3.145,9.729,9.729,0,0,1,.109,1.828.221.221,0,0,1-.237.239H262.16a.086.086,0,0,0-.091.091,5.805,5.805,0,0,0,.109,1.334,2.374,2.374,0,0,0,2.488,1.792A2.518,2.518,0,0,0,267.006,133.754Zm-4.792-4.206a5.139,5.139,0,0,0-.145,1.243.087.087,0,0,0,.091.092h4.7a.087.087,0,0,0,.091-.092,7.816,7.816,0,0,0-.109-1.17,2.285,2.285,0,0,0-2.36-1.792A2.178,2.178,0,0,0,262.213,129.548Z" transform="translate(-69.013 -123.148)" fill="#726c6b"/><path d="M268.461,124.977a.988.988,0,1,1,.987.951A.918.918,0,0,1,268.461,124.977Zm.346,11.632V127.83a.222.222,0,0,1,.239-.239h.822a.221.221,0,0,1,.237.239v8.779a.221.221,0,0,1-.237.237h-.822A.221.221,0,0,1,268.807,136.609Z" transform="translate(-66.841 -123.899)" fill="#726c6b"/></g></g></svg>